<svg width="438" height="171" viewBox="0 0 438 171" fill="none" xmlns="http://www.w3.org/2000/svg">
<path d="M317.799 170.816C316.391 170.816 315.047 170.624 313.767 170.24C312.508 169.856 311.516 169.387 310.791 168.832L312.071 166.4C312.796 166.891 313.692 167.307 314.759 167.648C315.825 167.989 316.913 168.16 318.023 168.16C319.452 168.16 320.476 167.957 321.095 167.552C321.735 167.147 322.055 166.581 322.055 165.856C322.055 165.323 321.863 164.907 321.479 164.608C321.095 164.309 320.583 164.085 319.943 163.936C319.324 163.787 318.631 163.659 317.863 163.552C317.095 163.424 316.327 163.275 315.559 163.104C314.791 162.912 314.087 162.656 313.447 162.336C312.807 161.995 312.295 161.536 311.911 160.96C311.527 160.363 311.335 159.573 311.335 158.592C311.335 157.568 311.623 156.672 312.199 155.904C312.775 155.136 313.585 154.549 314.631 154.144C315.697 153.717 316.956 153.504 318.407 153.504C319.516 153.504 320.636 153.643 321.767 153.92C322.919 154.176 323.857 154.549 324.583 155.04L323.271 157.472C322.503 156.96 321.703 156.608 320.871 156.416C320.039 156.224 319.207 156.128 318.375 156.128C317.031 156.128 316.028 156.352 315.367 156.8C314.705 157.227 314.375 157.781 314.375 158.464C314.375 159.04 314.567 159.488 314.951 159.808C315.356 160.107 315.868 160.341 316.487 160.512C317.127 160.683 317.831 160.832 318.599 160.96C319.367 161.067 320.135 161.216 320.903 161.408C321.671 161.579 322.364 161.824 322.983 162.144C323.623 162.464 324.135 162.912 324.519 163.488C324.924 164.064 325.127 164.832 325.127 165.792C325.127 166.816 324.828 167.701 324.231 168.448C323.633 169.195 322.791 169.781 321.703 170.208C320.615 170.613 319.313 170.816 317.799 170.816Z" fill="#545E6B"/>
<path d="M270.033 170.624V153.664H272.977V158.24L272.497 157.024C273.052 155.915 273.905 155.051 275.057 154.432C276.209 153.813 277.553 153.504 279.089 153.504C280.476 153.504 281.692 153.771 282.737 154.304C283.804 154.837 284.636 155.648 285.233 156.736C285.831 157.824 286.129 159.2 286.129 160.864V170.624H283.057V161.216C283.057 159.573 282.652 158.336 281.841 157.504C281.052 156.672 279.932 156.256 278.481 156.256C277.393 156.256 276.444 156.469 275.633 156.896C274.823 157.323 274.193 157.952 273.745 158.784C273.319 159.616 273.105 160.651 273.105 161.888V170.624H270.033Z" fill="#545E6B"/>
<path d="M235.865 170.816C234.158 170.816 232.643 170.443 231.321 169.696C229.998 168.949 228.953 167.925 228.185 166.624C227.417 165.301 227.033 163.808 227.033 162.144C227.033 160.459 227.417 158.965 228.185 157.664C228.953 156.363 229.998 155.349 231.321 154.624C232.643 153.877 234.158 153.504 235.865 153.504C237.55 153.504 239.054 153.877 240.377 154.624C241.721 155.349 242.766 156.363 243.513 157.664C244.281 158.944 244.665 160.437 244.665 162.144C244.665 163.829 244.281 165.323 243.513 166.624C242.766 167.925 241.721 168.949 240.377 169.696C239.054 170.443 237.55 170.816 235.865 170.816ZM235.865 168.128C236.953 168.128 237.923 167.883 238.777 167.392C239.651 166.901 240.334 166.208 240.825 165.312C241.315 164.395 241.561 163.339 241.561 162.144C241.561 160.928 241.315 159.883 240.825 159.008C240.334 158.112 239.651 157.419 238.777 156.928C237.923 156.437 236.953 156.192 235.865 156.192C234.777 156.192 233.806 156.437 232.953 156.928C232.099 157.419 231.417 158.112 230.905 159.008C230.393 159.883 230.137 160.928 230.137 162.144C230.137 163.339 230.393 164.395 230.905 165.312C231.417 166.208 232.099 166.901 232.953 167.392C233.806 167.883 234.777 168.128 235.865 168.128Z" fill="#545E6B"/>
<path d="M198.543 170.624V153.664H201.615V170.624H198.543ZM200.079 150.4C199.482 150.4 198.981 150.208 198.575 149.824C198.191 149.44 197.999 148.971 197.999 148.416C197.999 147.84 198.191 147.36 198.575 146.976C198.981 146.592 199.482 146.4 200.079 146.4C200.677 146.4 201.167 146.592 201.551 146.976C201.957 147.339 202.159 147.797 202.159 148.352C202.159 148.928 201.967 149.419 201.583 149.824C201.199 150.208 200.698 150.4 200.079 150.4Z" fill="#545E6B"/>
<path d="M169.997 170.816C168.291 170.816 166.968 170.357 166.029 169.44C165.091 168.523 164.621 167.211 164.621 165.504V149.952H167.693V165.376C167.693 166.293 167.917 166.997 168.365 167.488C168.835 167.979 169.496 168.224 170.349 168.224C171.309 168.224 172.109 167.957 172.749 167.424L173.709 169.632C173.24 170.037 172.675 170.336 172.013 170.528C171.373 170.72 170.701 170.816 169.997 170.816ZM161.741 156.192V153.664H172.557V156.192H161.741Z" fill="#545E6B"/>
<path d="M128.533 170.816C127.082 170.816 125.802 170.549 124.693 170.016C123.605 169.483 122.752 168.672 122.133 167.584C121.536 166.475 121.237 165.088 121.237 163.424V153.664H124.309V163.072C124.309 164.736 124.704 165.984 125.493 166.816C126.304 167.648 127.434 168.064 128.885 168.064C129.952 168.064 130.88 167.851 131.669 167.424C132.458 166.976 133.066 166.336 133.493 165.504C133.92 164.651 134.133 163.627 134.133 162.432V153.664H137.205V170.624H134.293V166.048L134.773 167.264C134.218 168.395 133.386 169.269 132.277 169.888C131.168 170.507 129.92 170.816 128.533 170.816Z" fill="#545E6B"/>
<path d="M91.3395 170.624V146.88H94.4115V170.624H91.3395Z" fill="#545E6B"/>
<path d="M57.171 170.816C55.4643 170.816 53.9497 170.443 52.627 169.696C51.3043 168.949 50.259 167.925 49.491 166.624C48.723 165.301 48.339 163.808 48.339 162.144C48.339 160.459 48.723 158.965 49.491 157.664C50.259 156.363 51.3043 155.349 52.627 154.624C53.9497 153.877 55.4643 153.504 57.171 153.504C58.8563 153.504 60.3603 153.877 61.683 154.624C63.027 155.349 64.0723 156.363 64.819 157.664C65.587 158.944 65.971 160.437 65.971 162.144C65.971 163.829 65.587 165.323 64.819 166.624C64.0723 167.925 63.027 168.949 61.683 169.696C60.3603 170.443 58.8563 170.816 57.171 170.816ZM57.171 168.128C58.259 168.128 59.2297 167.883 60.083 167.392C60.9577 166.901 61.6403 166.208 62.131 165.312C62.6217 164.395 62.867 163.339 62.867 162.144C62.867 160.928 62.6217 159.883 62.131 159.008C61.6403 158.112 60.9577 157.419 60.083 156.928C59.2297 156.437 58.259 156.192 57.171 156.192C56.083 156.192 55.1123 156.437 54.259 156.928C53.4057 157.419 52.723 158.112 52.211 159.008C51.699 159.883 51.443 160.928 51.443 162.144C51.443 163.339 51.699 164.395 52.211 165.312C52.723 166.208 53.4057 166.901 54.259 167.392C55.1123 167.883 56.083 168.128 57.171 168.128Z" fill="#545E6B"/>
<path d="M15.888 170.88C14.1813 170.88 12.5493 170.624 10.992 170.112C9.43468 169.579 8.20801 168.896 7.31201 168.064L8.49601 165.568C9.34935 166.315 10.4373 166.933 11.76 167.424C13.0827 167.915 14.4587 168.16 15.888 168.16C17.1893 168.16 18.2453 168.011 19.056 167.712C19.8667 167.413 20.464 167.008 20.848 166.496C21.232 165.963 21.424 165.365 21.424 164.704C21.424 163.936 21.168 163.317 20.656 162.848C20.1653 162.379 19.5147 162.005 18.704 161.728C17.9147 161.429 17.04 161.173 16.08 160.96C15.12 160.747 14.1493 160.501 13.168 160.224C12.208 159.925 11.3227 159.552 10.512 159.104C9.72268 158.656 9.08268 158.059 8.59201 157.312C8.10135 156.544 7.85601 155.563 7.85601 154.368C7.85601 153.216 8.15468 152.16 8.75201 151.2C9.37068 150.219 10.3093 149.44 11.568 148.864C12.848 148.267 14.4693 147.968 16.432 147.968C17.7333 147.968 19.024 148.139 20.304 148.48C21.584 148.821 22.6933 149.312 23.632 149.952L22.576 152.512C21.616 151.872 20.6027 151.413 19.536 151.136C18.4693 150.837 17.4347 150.688 16.432 150.688C15.1733 150.688 14.1387 150.848 13.328 151.168C12.5173 151.488 11.92 151.915 11.536 152.448C11.1733 152.981 10.992 153.579 10.992 154.24C10.992 155.029 11.2373 155.659 11.728 156.128C12.24 156.597 12.8907 156.971 13.68 157.248C14.4907 157.525 15.376 157.781 16.336 158.016C17.296 158.229 18.256 158.475 19.216 158.752C20.1973 159.029 21.0827 159.392 21.872 159.84C22.6827 160.288 23.3333 160.885 23.824 161.632C24.3147 162.379 24.56 163.339 24.56 164.512C24.56 165.643 24.2507 166.699 23.632 167.68C23.0133 168.64 22.0533 169.419 20.752 170.016C19.472 170.592 17.8507 170.88 15.888 170.88Z" fill="#545E6B"/>
<path d="M437.412 0C437.071 4.69333 436.815 9.21599 436.644 13.568C436.559 17.92 436.516 21.248 436.516 23.552C436.516 25.4293 436.559 27.1787 436.644 28.8C436.729 30.4213 436.815 31.8293 436.9 33.024H433.956C432.249 25.4293 430.201 19.456 427.812 15.104C425.423 10.6667 422.692 7.552 419.62 5.75999C416.633 3.88266 413.391 2.94399 409.892 2.94399H408.356V76.032C408.356 79.5307 408.697 82.1333 409.38 83.84C410.148 85.5467 411.513 86.6987 413.476 87.296C415.524 87.808 418.468 88.064 422.308 88.064V90.624C419.492 90.5387 415.695 90.4533 410.916 90.368C406.223 90.2827 401.316 90.24 396.196 90.24C391.161 90.24 386.425 90.2827 381.988 90.368C377.551 90.4533 373.967 90.5387 371.236 90.624V88.064C375.076 88.064 378.02 87.808 380.068 87.296C382.116 86.6987 383.481 85.5467 384.164 83.84C384.847 82.1333 385.188 79.5307 385.188 76.032V2.94399H383.78C380.196 2.94399 376.911 3.88266 373.924 5.75999C370.937 7.552 368.249 10.624 365.86 14.976C363.471 19.328 361.38 25.344 359.588 33.024H356.644C356.815 31.8293 356.9 30.4213 356.9 28.8C356.985 27.1787 357.028 25.4293 357.028 23.552C357.028 21.248 356.943 17.92 356.772 13.568C356.687 9.21599 356.473 4.69333 356.132 0C360.143 0.0853322 364.537 0.170664 369.316 0.255997C374.18 0.341329 379.001 0.383995 383.78 0.383995C388.559 0.383995 392.911 0.383995 396.836 0.383995C400.761 0.383995 405.113 0.383995 409.892 0.383995C414.756 0.383995 419.577 0.341329 424.356 0.255997C429.135 0.170664 433.487 0.0853322 437.412 0Z" fill="#063481"/>
<path d="M337.535 0V2.56C334.975 2.64533 333.012 2.98666 331.647 3.584C330.282 4.096 329.343 5.12 328.831 6.656C328.404 8.10666 328.191 10.4107 328.191 13.568V77.056C328.191 80.128 328.447 82.432 328.959 83.968C329.471 85.504 330.367 86.528 331.647 87.04C333.012 87.552 334.975 87.8933 337.535 88.064V90.624C335.06 90.4533 331.86 90.368 327.935 90.368C324.095 90.2827 320.17 90.24 316.159 90.24C311.807 90.24 307.711 90.2827 303.871 90.368C300.116 90.368 297.044 90.4533 294.655 90.624V88.064C297.556 87.8933 299.732 87.552 301.183 87.04C302.719 86.528 303.743 85.504 304.255 83.968C304.767 82.432 305.023 80.128 305.023 77.056V8.19199L306.175 8.064L274.175 90.624H272.127L236.799 8.32V67.584C236.799 72.7893 237.055 76.8 237.567 79.616C238.079 82.3467 239.231 84.3093 241.023 85.504C242.815 86.6987 245.631 87.552 249.471 88.064V90.624C247.85 90.4533 245.674 90.368 242.943 90.368C240.298 90.2827 237.78 90.24 235.391 90.24C233.514 90.24 231.551 90.2827 229.503 90.368C227.54 90.368 225.876 90.4533 224.511 90.624V88.064C227.242 87.552 229.247 86.7413 230.527 85.632C231.892 84.4373 232.788 82.6027 233.215 80.128C233.642 77.568 233.855 74.0693 233.855 69.632V13.568C233.855 10.4107 233.642 8.10666 233.215 6.656C232.788 5.12 231.892 4.096 230.527 3.584C229.162 2.98666 227.156 2.64533 224.511 2.56V0C225.876 0.0853322 227.54 0.170664 229.503 0.255997C231.551 0.341329 233.514 0.383995 235.391 0.383995C239.743 0.383995 243.924 0.341329 247.935 0.255997C251.946 0.170664 255.572 0.0853322 258.815 0L284.927 60.928L281.343 64.512L306.047 0.383995C307.668 0.383995 309.332 0.383995 311.039 0.383995C312.831 0.383995 314.538 0.383995 316.159 0.383995C320.17 0.383995 324.095 0.341329 327.935 0.255997C331.86 0.170664 335.06 0.0853322 337.535 0Z" fill="#063481"/>
<path d="M206.287 0V2.432C203.471 3.11466 200.399 4.43733 197.071 6.39999C193.743 8.27733 190.202 11.3493 186.447 15.616L162.767 43.264L171.599 31.232L201.935 80.256C203.13 82.1333 204.324 83.6693 205.519 84.864C206.799 86.0587 208.463 87.1253 210.511 88.064V90.624C207.183 90.4533 203.599 90.368 199.759 90.368C195.919 90.2827 192.335 90.24 189.007 90.24C187.13 90.24 184.826 90.2827 182.095 90.368C179.364 90.368 175.908 90.4533 171.727 90.624V88.064C175.482 87.8933 177.7 87.424 178.383 86.656C179.066 85.888 178.767 84.4373 177.487 82.304L158.799 51.584C157.775 49.792 156.836 48.4693 155.983 47.616C155.215 46.7627 154.447 46.1653 153.679 45.824C152.911 45.3973 151.887 45.1413 150.607 45.056V42.496C154.362 42.3253 157.818 41.1733 160.975 39.04C164.132 36.9067 167.716 33.4933 171.727 28.8L177.743 21.76C181.156 17.8347 183.034 14.464 183.375 11.648C183.802 8.832 183.076 6.61333 181.199 4.992C179.407 3.37066 176.847 2.51733 173.519 2.432V0C175.738 0.0853322 177.871 0.170664 179.919 0.255997C181.967 0.255997 184.058 0.298663 186.191 0.383995C188.41 0.383995 190.927 0.383995 193.743 0.383995C196.388 0.383995 198.735 0.341329 200.783 0.255997C202.831 0.170664 204.666 0.0853322 206.287 0ZM160.719 0V2.56C158.074 2.64533 156.068 2.98666 154.703 3.584C153.338 4.096 152.442 5.12 152.015 6.656C151.588 8.10666 151.375 10.4107 151.375 13.568V77.056C151.375 80.128 151.588 82.432 152.015 83.968C152.527 85.504 153.423 86.528 154.703 87.04C156.068 87.552 158.074 87.8933 160.719 88.064V90.624C158.33 90.4533 155.258 90.368 151.503 90.368C147.834 90.2827 144.122 90.24 140.367 90.24C136.015 90.24 131.919 90.2827 128.079 90.368C124.239 90.368 121.167 90.4533 118.863 90.624V88.064C121.508 87.8933 123.471 87.552 124.751 87.04C126.116 86.528 127.012 85.504 127.439 83.968C127.951 82.432 128.207 80.128 128.207 77.056V13.568C128.207 10.4107 127.951 8.10666 127.439 6.656C127.012 5.12 126.116 4.096 124.751 3.584C123.471 2.98666 121.508 2.64533 118.863 2.56V0C121.167 0.0853322 124.239 0.170664 128.079 0.255997C131.919 0.341329 136.015 0.383995 140.367 0.383995C144.122 0.383995 147.834 0.341329 151.503 0.255997C155.258 0.170664 158.33 0.0853322 160.719 0Z" fill="#063481"/>
<path d="M57.496 90.624V88.064C60.1413 87.8933 62.104 87.552 63.384 87.04C64.7493 86.528 65.6453 85.504 66.072 83.968C66.584 82.432 66.84 80.128 66.84 77.056V13.568C66.84 10.4107 66.584 8.10666 66.072 6.656C65.6453 5.12 64.7493 4.096 63.384 3.584C62.104 2.98666 60.1413 2.64533 57.496 2.56V0C59.9707 0.0853322 63.1707 0.170664 67.096 0.255997C71.0213 0.341329 74.9467 0.383995 78.872 0.383995C83.0533 0.383995 86.936 0.341329 90.52 0.255997C94.1893 0.170664 97.1333 0.0853322 99.352 0V2.56C96.7067 2.64533 94.7013 2.98666 93.336 3.584C91.9707 4.096 91.0747 5.12 90.648 6.656C90.2213 8.10666 90.008 10.4107 90.008 13.568V77.056C90.008 80.128 90.2213 82.432 90.648 83.968C91.16 85.504 92.056 86.528 93.336 87.04C94.7013 87.552 96.7067 87.8933 99.352 88.064V90.624C97.1333 90.4533 94.1893 90.368 90.52 90.368C86.936 90.2827 83.0533 90.24 78.872 90.24C74.9467 90.24 71.0213 90.2827 67.096 90.368C63.1707 90.368 59.9707 90.4533 57.496 90.624ZM2.96799 90.624V88.064C5.61332 87.8933 7.57599 87.552 8.85599 87.04C10.2213 86.528 11.1173 85.504 11.544 83.968C12.056 82.432 12.312 80.128 12.312 77.056V13.568C12.312 10.4107 12.056 8.10666 11.544 6.656C11.1173 5.12 10.2213 4.096 8.85599 3.584C7.57599 2.98666 5.61332 2.64533 2.96799 2.56V0C5.27199 0.0853322 8.34399 0.170664 12.184 0.255997C16.024 0.341329 20.12 0.383995 24.472 0.383995C28.2267 0.383995 31.9387 0.341329 35.608 0.255997C39.3627 0.170664 42.4347 0.0853322 44.824 0V2.56C42.1787 2.64533 40.1733 2.98666 38.808 3.584C37.4427 4.096 36.5467 5.12 36.12 6.656C35.6933 8.10666 35.48 10.4107 35.48 13.568V77.056C35.48 80.128 35.6933 82.432 36.12 83.968C36.632 85.504 37.528 86.528 38.808 87.04C40.1733 87.552 42.1787 87.8933 44.824 88.064V90.624C42.4347 90.4533 39.3627 90.368 35.608 90.368C31.9387 90.2827 28.2267 90.24 24.472 90.24C20.12 90.24 16.024 90.2827 12.184 90.368C8.34399 90.368 5.27199 90.4533 2.96799 90.624ZM25.88 46.336V43.776H76.44V46.336H25.88Z" fill="#063481"/>
<path d="M334 116.624C335.657 116.624 337 117.967 337 119.624C337 121.281 335.657 122.624 334 122.624H3C1.34315 122.624 0 121.281 0 119.624C0 117.967 1.34315 116.624 3 116.624H334Z" fill="#F8831A"/>
</svg>
